<svg id="Layer_1" data-name="Layer 1" xmlns="http://www.w3.org/2000/svg" xmlns:xlink="http://www.w3.org/1999/xlink" viewBox="0 0 4000 3000"><defs><style>.cls-1{fill:url(#linear-gradient);}.cls-2{fill:url(#linear-gradient-2);}.cls-3{fill:url(#linear-gradient-3);}.cls-4{fill:url(#linear-gradient-4);}.cls-5{fill:url(#linear-gradient-5);}.cls-6{fill:url(#linear-gradient-6);}.cls-7{fill:url(#linear-gradient-7);}.cls-8{fill:url(#linear-gradient-8);}.cls-9{fill:url(#linear-gradient-9);}.cls-10{fill:url(#linear-gradient-10);}.cls-11{fill:url(#linear-gradient-11);}.cls-12{fill:url(#linear-gradient-12);}.cls-13{fill:url(#linear-gradient-13);}.cls-14{fill:url(#linear-gradient-14);}.cls-15{fill:url(#linear-gradient-15);}.cls-16{fill:#001e4f;}</style><linearGradient id="linear-gradient" x1="2572.9" y1="1850.61" x2="1519.93" y2="953" gradientUnits="userSpaceOnUse"><stop offset="0" stop-color="#4bd7f8"/><stop offset="1" stop-color="#001e4f"/></linearGradient><linearGradient id="linear-gradient-2" x1="2687.54" y1="1716.13" x2="1634.57" y2="818.51" xlink:href="#linear-gradient"/><linearGradient id="linear-gradient-3" x1="2516.32" y1="1916.99" x2="1463.34" y2="1019.38" xlink:href="#linear-gradient"/><linearGradient id="linear-gradient-4" x1="2323.71" y1="2142.94" x2="1270.73" y2="1245.32" xlink:href="#linear-gradient"/><linearGradient id="linear-gradient-5" x1="2402.98" y1="2049.95" x2="1350.01" y2="1152.33" xlink:href="#linear-gradient"/><linearGradient id="linear-gradient-6" x1="2871.18" y1="1500.72" x2="1818.2" y2="603.1" xlink:href="#linear-gradient"/><linearGradient id="linear-gradient-7" x1="2968.31" y1="1386.77" x2="1915.33" y2="489.16" xlink:href="#linear-gradient"/><linearGradient id="linear-gradient-8" x1="2603.91" y1="1814.24" x2="1550.93" y2="916.62" xlink:href="#linear-gradient"/><linearGradient id="linear-gradient-9" x1="2470.3" y1="1970.98" x2="1417.32" y2="1073.36" xlink:href="#linear-gradient"/><linearGradient id="linear-gradient-10" x1="2300.14" y1="2170.59" x2="1247.16" y2="1272.97" xlink:href="#linear-gradient"/><linearGradient id="linear-gradient-11" x1="2263.3" y1="2213.8" x2="1210.32" y2="1316.18" xlink:href="#linear-gradient"/><linearGradient id="linear-gradient-12" x1="2597.37" y1="1821.91" x2="1544.4" y2="924.29" xlink:href="#linear-gradient"/><linearGradient id="linear-gradient-13" x1="2836.54" y1="1541.35" x2="1783.57" y2="643.73" xlink:href="#linear-gradient"/><linearGradient id="linear-gradient-14" x1="2694.55" y1="1707.92" x2="1641.57" y2="810.3" xlink:href="#linear-gradient"/><linearGradient id="linear-gradient-15" x1="2897.27" y1="1470.1" x2="1844.3" y2="572.48" xlink:href="#linear-gradient"/></defs><title>1. vector file</title><path class="cls-1" d="M2336.29,1485.43l-102.89-21.25a73.3,73.3,0,0,1-88.06,46.4l-27,64.32a78.43,78.43,0,0,1,51.11,95.27c70.55,6,164.79-7.82,223.54-103A92.49,92.49,0,0,1,2336.29,1485.43Z"/><path class="cls-2" d="M2337.8,1464.54a92.12,92.12,0,0,1,23.07-45.35l-164.33-232.9a62.88,62.88,0,0,1-16.8,7L2176,1366.49a73.88,73.88,0,0,1,61.85,72.76c0,1.56-.14,3.07-.23,4.6Z"/><path class="cls-3" d="M2092.17,1455.93l-180.8,15.73a57.54,57.54,0,0,1-7.18,23L2032,1600.17a78.72,78.72,0,0,1,61.33-29.39c1.39,0,2.74.14,4.1.21l28.73-68.46A74,74,0,0,1,2092.17,1455.93Z"/><path class="cls-4" d="M1944,1707.72,1866.14,1523a58.25,58.25,0,0,1-12.68,1.43h-.08L1823,1690.59a58.08,58.08,0,0,1,5.25,103.57c5.4,29.27,1.6,71.86-31.23,129.64,0,0,112.62,22,154.76-210.1A10.17,10.17,0,0,1,1944,1707.72Z"/><path class="cls-5" d="M2014.49,1649.66a78.26,78.26,0,0,1,6.64-31.57L1891,1510.69a56.45,56.45,0,0,1-5.71,4.26l77.9,184.7a10.24,10.24,0,0,1-3.23,12c9.56,13.55,25.64,43.28,16.06,80.62,0,0,39.32-38.66,68.79-80.63A78.73,78.73,0,0,1,2014.49,1649.66Z"/><path class="cls-6" d="M2677.44,1177.72c-6.69-52.93-20.82-98.64-39.14-138.08L2630,1167.71a63.64,63.64,0,1,1-40.05,120l-95.39,129.7A92.27,92.27,0,0,1,2519,1463C2599,1425.36,2698.5,1344.45,2677.44,1177.72Z"/><path class="cls-7" d="M2426.27,917.86a58.65,58.65,0,0,1-11.63,35l168.22,222.92a63.18,63.18,0,0,1,26.43-9.2l9.45-146.32a10.1,10.1,0,0,1,5.5-8.28c-78.55-141.44-209.79-189.64-209.79-189.64l-11.16,48.86A58.88,58.88,0,0,1,2426.27,917.86Z"/><path class="cls-8" d="M2164,1481.92a42.67,42.67,0,1,0-42.68-42.67A42.67,42.67,0,0,0,2164,1481.92Z"/><path class="cls-9" d="M2093.37,1601.92a47.75,47.75,0,1,0,47.75,47.74A47.74,47.74,0,0,0,2093.37,1601.92Z"/><path class="cls-10" d="M1826.42,1743.71a27,27,0,1,0-27,27A27,27,0,0,0,1826.42,1743.71Z"/><path class="cls-11" d="M1730.75,1673.26a58.1,58.1,0,0,1-86.72-50.64c0-.9.09-1.78.13-2.67l-82.84-3.81a86.72,86.72,0,0,1-31,43.35c32.55,51,100.15,123.55,213.71,102.13a57.78,57.78,0,0,1,12.56-57.21Z"/><path class="cls-12" d="M1509.18,1536.94l95.34-283.54a61.61,61.61,0,0,0,9.38.79c.66,0,1.31-.08,2-.1L1687,1600.26a27,27,0,1,0,42.23,22.36,26.73,26.73,0,0,0-2.23-10.71l22.39-23.14a57.83,57.83,0,0,1-2.68,71.23l26.44,31.85a57.68,57.68,0,0,1,26.22-6.32c1.15,0,2.27.11,3.4.18l30.19-165a58.44,58.44,0,0,1-11.72-6.16l22.35-23.1a26.72,26.72,0,0,0,9.86,1.92A27,27,0,0,0,1872.4,1447l12-29.83a58.31,58.31,0,0,1,25.16,33.8l180.86-15.74a73.84,73.84,0,0,1,64.82-69.24l3.71-170.94a63.55,63.55,0,0,1-46.47-26.36l28.51-14.09a32.5,32.5,0,1,0,36.81-52.34l3.57-31.58a63.3,63.3,0,0,1,31.11,102.17l164.17,232.65a91.67,91.67,0,0,1,32.06-13.81l-27.85-416.46a58.65,58.65,0,0,1-65.25-28.9l-73.88,10.87a58.89,58.89,0,0,1-54.89,65.1l3.63-32.06a27.65,27.65,0,0,0,14.84-43.41l76.53-125.94a25.46,25.46,0,0,0,16.56.15l46.87,79.84a29.38,29.38,0,1,0,17.9-10.51l-48.46-82.55a27.58,27.58,0,0,0,3.54-13.35,27.89,27.89,0,1,0-52.48,12.88l-78.2,128.69a28,28,0,0,0-4.52-.45H2183l-60.09-148.94a27.83,27.83,0,1,0-19.28,7.82h.05l60.09,148.94a27.72,27.72,0,0,0-7,11.24l-182.89,10.82A42.51,42.51,0,0,0,1948,938.36l12.69-119.77a32.59,32.59,0,1,0-20.64-2.22l-12.7,119.84a42.42,42.42,0,0,0-28.07,16.59l-170.66-71.3a42.6,42.6,0,1,0-61.35,31.55l-50,218.78c-1.11-.06-2.21-.17-3.33-.17a61.12,61.12,0,0,0-57.29,82.82L1402.14,1305a47.48,47.48,0,1,0,9.81,18.3l155.13-90.93a61.58,61.58,0,0,0,17.74,14.45l-95.16,283a61.32,61.32,0,1,0,19.52,7.07Zm466-550.74,182.69-10.82a27.82,27.82,0,0,0,11.93,12.53l-12.66,112a32.18,32.18,0,0,0-13,6.14L1973.4,992.46A42.42,42.42,0,0,0,1975.2,986.2Zm-13.28,23.56L2132.7,1123.3a32.47,32.47,0,0,0-1.22,8.36,33.35,33.35,0,0,0,.43,4.28l-151.4,74.83a46.55,46.55,0,0,0-27.75-16.57L1945.41,1019A42.47,42.47,0,0,0,1961.92,1009.76Zm-17.61,277.38a46.44,46.44,0,0,0,45.49-57.8l28.38-14a77.1,77.1,0,0,1,4.16,24.93,78.13,78.13,0,0,1-78,78,76.72,76.72,0,0,1-19.17-2.51L1937,1286.4A46.83,46.83,0,0,0,1944.31,1287.14ZM1687.48,917.77a42.44,42.44,0,0,0,33.14-17.1L1891.28,972a41.52,41.52,0,0,0,33.4,48.11l7.35,175.09a46.77,46.77,0,0,0-31.41,28.33l-225.54-32.3a61.26,61.26,0,0,0-37.6-54.83Zm-15.3,294,225.61,32.31a46.69,46.69,0,0,0,19.85,34.7l-64.51,160.51a27,27,0,0,0-24.48,37.73L1712.06,1597.5a27.52,27.52,0,0,0-4.71-1.4l-71.14-346.17A61.36,61.36,0,0,0,1672.18,1211.76Z"/><path class="cls-13" d="M2475.57,1404.63l94.34-128.27a63.48,63.48,0,0,1-5.59-86.72l-166-220,28.1,420.24A91.81,91.81,0,0,1,2475.57,1404.63Z"/><circle class="cls-14" cx="2429.44" cy="1481.92" r="65.14"/><circle class="cls-15" cx="2616.37" cy="1230.65" r="36.15"/><path class="cls-16" d="M1428.31,2250.3h29.81l27.87-65.91h88.5l28,65.91h29.82l-102-230.7Zm135.66-91h-67.23l33.57-79.1Z"/><polygon class="cls-16" points="1856.73 2194.12 1690.38 2019.6 1690.38 2250.3 1717.06 2250.3 1717.06 2086.77 1883.41 2261.28 1883.41 2030.59 1856.73 2030.59 1856.73 2194.12"/><path class="cls-16" d="M1941.48,2250.3h29.81l27.87-65.91h88.5l28,65.91h29.82l-102-230.7Zm135.66-91h-67.23l33.57-79.1Z"/><polygon class="cls-16" points="2230.23 2030.59 2203.55 2030.59 2203.55 2250.3 2316.54 2250.3 2316.54 2225.19 2230.23 2225.19 2230.23 2030.59"/><polygon class="cls-16" points="2416.99 2132.28 2360.49 2030.59 2330.67 2030.59 2403.8 2155.83 2403.8 2250.3 2430.48 2250.3 2430.48 2155.51 2503.61 2030.59 2473.79 2030.59 2416.99 2132.28"/><polygon class="cls-16" points="2549.12 2055.7 2605.62 2055.7 2605.62 2250.3 2632.3 2250.3 2632.3 2055.7 2688.8 2055.7 2688.8 2030.59 2549.12 2030.59 2549.12 2055.7"/><rect class="cls-16" x="2748.42" y="2030.59" width="26.68" height="219.71"/><path class="cls-16" d="M2954,2027.45a110.23,110.23,0,0,0-42.85,8.32,106.63,106.63,0,0,0-35,23.54,109.39,109.39,0,0,0-23.53,35.94,124.68,124.68,0,0,0,0,90.39,109.39,109.39,0,0,0,23.53,35.94,106.33,106.33,0,0,0,35,23.54,110.23,110.23,0,0,0,42.85,8.32q24.16,0,40.49-6a93.73,93.73,0,0,0,30.13-18.2v-35.15a81.46,81.46,0,0,1-18.21,17.1,87.2,87.2,0,0,1-23.7,11.46,95.66,95.66,0,0,1-28.71,4.08,77.32,77.32,0,0,1-30.92-6.28,83.07,83.07,0,0,1-44.1-45,96.21,96.21,0,0,1,0-70,83.07,83.07,0,0,1,44.1-45,77.49,77.49,0,0,1,30.92-6.28,96,96,0,0,1,28.71,4.08,87.49,87.49,0,0,1,23.7,11.46,81.68,81.68,0,0,1,18.21,17.1v-35.15a93.94,93.94,0,0,0-30.13-18.21Q2978.17,2027.46,2954,2027.45Z"/><path class="cls-16" d="M3230.52,2164.77a62.78,62.78,0,0,0-13.65-18.52,82.3,82.3,0,0,0-18-12.71,151.68,151.68,0,0,0-18.51-8.16,196.51,196.51,0,0,1-24.33-10,70,70,0,0,1-15.69-10.36,31,31,0,0,1-10.83-24.17,26.63,26.63,0,0,1,3.61-13.5,27.5,27.5,0,0,1,11.14-10.35q7.53-4.08,19.46-4.09,12.87,0,21.81,5a51.88,51.88,0,0,1,15.23,12.87,90.53,90.53,0,0,1,10.35,16l22.92-13.18a89,89,0,0,0-14.76-22.13,76.68,76.68,0,0,0-22.75-17.26q-13.35-6.73-31.23-6.75-18.52,0-33,7.38a56.72,56.72,0,0,0-22.6,20.24,53.38,53.38,0,0,0-8.16,29.2q0,15.06,5.81,25.42a57.19,57.19,0,0,0,14.91,17.42,95.31,95.31,0,0,0,19.15,11.61q10,4.56,18.2,7.37a216.23,216.23,0,0,1,23.7,9.89,51.63,51.63,0,0,1,18.05,14.28q6.88,8.79,6.9,23.54a32.74,32.74,0,0,1-18.36,30.14q-8.64,4.39-20.56,4.39a48.41,48.41,0,0,1-23.54-5.65,64,64,0,0,1-18.68-15.7,163.36,163.36,0,0,1-15.85-23.22l-21.34,14.44a121.78,121.78,0,0,0,18.68,27.15,90.61,90.61,0,0,0,26.67,20.4,72.48,72.48,0,0,0,33.11,7.69,73.34,73.34,0,0,0,25.27-4.4,69.7,69.7,0,0,0,21.66-12.55,58.7,58.7,0,0,0,15.07-19.77,60.21,60.21,0,0,0,5.49-26Q3235.86,2175.59,3230.52,2164.77Z"/><path class="cls-16" d="M764.14,2250.3h60l20.47-42.37h69.69l20.32,42.37h60.58L880,2016.78Zm140.15-82.86h-48.8L880,2111.57Z"/><rect class="cls-16" x="1049.76" y="2030.59" width="53.67" height="219.71"/><path class="cls-16" d="M1289.55,2025.57q-26.35,0-48.49,8.32a118.21,118.21,0,0,0-38.61,23.38,97.55,97.55,0,0,0-25,36.25q-8.48,21.2-8.47,46.92t8.47,46.93a96,96,0,0,0,25,36.09,119.6,119.6,0,0,0,38.61,23.23q22.13,8.31,48.49,8.32,24.17,0,39.71-6a120.93,120.93,0,0,0,28.71-15.69V2175.6a123.55,123.55,0,0,1-16.47,14.28,79.37,79.37,0,0,1-21.19,10.83q-11.93,4.08-27.62,4.08a73.14,73.14,0,0,1-25.27-4.4,61.57,61.57,0,0,1-21.18-12.86,60.67,60.67,0,0,1-14.28-20.25q-5.19-11.76-5.18-26.84a65.89,65.89,0,0,1,5.18-26.83,60.67,60.67,0,0,1,14.28-20.25,61.57,61.57,0,0,1,21.18-12.86,73.38,73.38,0,0,1,25.27-4.4q15.69,0,27.62,4.08a82.09,82.09,0,0,1,21.19,10.68,105.37,105.37,0,0,1,16.47,14.43v-57.75a106.45,106.45,0,0,0-28.71-16.16Q1313.72,2025.57,1289.55,2025.57Z"/></svg>