<svg id="Layer_1" data-name="Layer 1" xmlns="http://www.w3.org/2000/svg" xmlns:xlink="http://www.w3.org/1999/xlink" viewBox="0 0 4000 3000"><defs><style>.cls-1{fill:#001e4f;}.cls-2{fill:url(#linear-gradient);}.cls-3{fill:url(#linear-gradient-2);}.cls-4{fill:url(#linear-gradient-3);}.cls-5{fill:url(#linear-gradient-4);}</style><linearGradient id="linear-gradient" x1="1919.05" y1="2039.28" x2="-192.08" y2="884.37" gradientUnits="userSpaceOnUse"><stop offset="0" stop-color="#4bd7f8"/><stop offset="1" stop-color="#001e4f"/></linearGradient><linearGradient id="linear-gradient-2" x1="2008.79" y1="1875.24" x2="-102.34" y2="720.33" xlink:href="#linear-gradient"/><linearGradient id="linear-gradient-3" x1="2050.47" y1="1799.06" x2="-60.66" y2="644.15" xlink:href="#linear-gradient"/><linearGradient id="linear-gradient-4" x1="1980.08" y1="1927.72" x2="-131.05" y2="772.81" xlink:href="#linear-gradient"/></defs><title>2. vector file</title><path class="cls-1" d="M1808.06,1507.11h-90.67l-21.27,57.3h-22.44l79.44-206.74h10q9.75,0,14.18,11.82l45.48,119.31h.3v.59l28.65,75h-22.45Zm-83.88-18.31h77.08L1762.87,1386h-.29Z"/><path class="cls-1" d="M1911.42,1357.67h20.67l114.6,172.18V1357.67H2068v206.74h-20.67l-114.59-171v171h-21.27Z"/><path class="cls-1" d="M2262,1507.11h-90.67l-21.26,57.3H2127.6l79.45-206.74h10q9.75,0,14.18,11.82l45.48,119.31h.3v.59l28.64,75h-22.44Zm-83.87-18.31h77.08L2216.8,1386h-.3Z"/><path class="cls-1" d="M2368.6,1559.39q-5-5-5-14.18V1357.67h21.85v187.25h112.23v19.49H2382.77Q2373.62,1564.41,2368.6,1559.39Z"/><path class="cls-1" d="M2587.45,1485l-76.2-127.29h23.63l63.49,107.51,63.5-107.51h23.63L2609.3,1485v79.45h-21.85Z"/><path class="cls-1" d="M2794.18,1376.57h-65.57v-18.9h153v18.9H2816v187.84h-21.85Z"/><path class="cls-1" d="M2946.57,1357.67h21.85v206.74h-21.85Z"/><path class="cls-1" d="M3074.31,1557.32a63.5,63.5,0,0,1-23.63-26.43q-8.41-17-8.42-39.13v-61.44q0-22.14,8.42-39.28a61.84,61.84,0,0,1,23.92-26.43q15.51-9.3,35.88-9.3h31.31q19.2,0,33.82,8.27a57.73,57.73,0,0,1,22.74,23.33q8.12,15.06,8.12,34.55H3185.2q0-21-12-33.81t-31.45-12.85h-31.31q-21,0-33.66,15.21t-12.71,40.31v61.44q0,25.1,12.41,40.31t32.78,15.21h31.9q20.09,0,32.34-14.18t12.25-37.21h21.27q0,21-8.27,37.06a60.55,60.55,0,0,1-23.18,25q-14.93,8.86-34.41,8.86h-31.9Q3089.52,1566.77,3074.31,1557.32Z"/><path class="cls-1" d="M3294.18,1559.24a52.9,52.9,0,0,1-21.12-21.26q-7.53-13.74-7.53-31.75h21.27q0,18.32,10.77,29.68t28.51,11.37h32.78q17.41,0,28.06-7.83t10.63-20.52V1500a22.3,22.3,0,0,0-7.83-17.14q-7.83-7.08-21.41-9.15l-53.16-8.86q-22.46-3.84-34.85-16t-12.41-30.42v-16q0-21.55,16.1-34.41t42.67-12.84H3360q25.1,0,40.46,15.21t15.36,40h-21.27q0-16.24-9.45-26t-25.1-9.75h-33.38q-16.83,0-26.87,7.53a24,24,0,0,0-10,20.23v16a23,23,0,0,0,7.53,17.42q7.53,7.1,20.82,9.46l52.87,9.15q23,4.14,35.73,15.8t12.7,29.69v18.9q0,21.55-16.54,34.7t-43.41,13.14h-34Q3307.76,1566.77,3294.18,1559.24Z"/><path class="cls-2" d="M698.67,1557.89H834l32.33-64.1H996l-27.78,72.77h30.2l20.9-58h93l21.2,58h30l-85-222.1H1053l-.08.2H869.29L829.77,1280H686.7a35.93,35.93,0,1,0,0,21.68H817.61l39.52,64.67h187.54l-17.52,45.89H810.4l-15.71-28.72a32.54,32.54,0,1,0-20.69,7.43h0l11.64,21.29H650.77a35.91,35.91,0,1,0,0,21.69H786.14L775,1455.46c-.33,0-.65,0-1,0a32.61,32.61,0,1,0,21.29,8l15.27-29.47h208.31l-14.59,38.19H853l-32.34,64.1H698.68a35.95,35.95,0,1,0,0,21.68Zm405-73.4h-75.51l37.68-103.88Z"/><rect class="cls-3" x="1226.89" y="1344.46" width="29.29" height="222.1"/><path class="cls-4" d="M1366.59,1412.11a72.54,72.54,0,0,1,11.37-24.86,52.59,52.59,0,0,1,18.76-16q11.21-5.71,26-5.72,12.81,0,22,3.51a40.77,40.77,0,0,1,15.33,10.06,47.14,47.14,0,0,1,9.69,15.87,100.3,100.3,0,0,1,5.19,20.9h29.43a100.32,100.32,0,0,0-7.62-30.13,72.86,72.86,0,0,0-16.1-23.49A70.94,70.94,0,0,0,1456,1346.9q-14.49-5.49-33.25-5.49-20.6,0-37.15,7.4a79.19,79.19,0,0,0-28.14,20.89,94.65,94.65,0,0,0-17.85,32.49q-6.25,19-6.25,42.34v22.27q0,23.34,6.18,42.25a95.61,95.61,0,0,0,17.54,32.41,77.51,77.51,0,0,0,27.38,20.83,84.9,84.9,0,0,0,35.69,7.32q20,0,34.93-5.57a73.59,73.59,0,0,0,25.33-15.41,70.55,70.55,0,0,0,16.24-23.34,102.32,102.32,0,0,0,7.7-29.21H1474.9a104.72,104.72,0,0,1-5.34,21,43.58,43.58,0,0,1-9.84,15.56,41.34,41.34,0,0,1-15.94,9.68q-9.62,3.36-23.65,3.36-14.79,0-25.62-6.18a51.59,51.59,0,0,1-17.85-16.93,79.28,79.28,0,0,1-10.45-25.09,131.33,131.33,0,0,1-3.43-30.66v-22.58A126.81,126.81,0,0,1,1366.59,1412.11Z"/><path class="cls-5" d="M1576.72,1292c-5-20.31-25.79-77.27-108.19-114.46-87.57-39.51-174.8-24-193.71-19.89-175.12-45-305.72,27.69-353.93,61.22l-174.14,0L734,1206.16a36,36,0,1,0-19.67,11l23.47,23.47,199,1.15c45.34-31.53,168.68-100.14,334.25-56.29a13.91,13.91,0,0,0,7,0c.89-.23,91-22.3,179,17.44,84.41,38.09,93.08,97.29,93.4,99.7a14,14,0,0,0,7.62,10.86c2.84,1.42,69.58,35.82,67.57,113.48-2.48,95.72-25,112.75-69.09,112a13.43,13.43,0,0,0-10.89,4.94,14,14,0,0,0-3,11.56c.19,1,18.43,101.62-29,147-42.09,40.29-79.72,41.4-110,42.28-5.23.16-10.17.3-14.87.65a13.93,13.93,0,0,0-12.15,18.4l22.2,64.83h-74.19l-95.16-156.42a14,14,0,0,0-15.38-6.25c-.95.26-96.64,23.71-152.24-68.95a13.91,13.91,0,0,0-15.47-6.31l-306.34,1.68-24.11,36.17a36,36,0,1,0,20.16,8.86l15.56-23.34,291.63,5.68c54.74,82.2,138.21,79,167.33,75l94.3,155a13.92,13.92,0,0,0,11.89,6.69h101.51a13.93,13.93,0,0,0,13.18-18.44L1409,1772.59c31.23-1,76.38-4.43,123.84-49.87,46-44,43.13-122.71,39.4-156.43,64.11-6.36,79.2-60.21,81.23-138.56C1655.63,1346.21,1596.5,1303.89,1576.72,1292Z"/></svg>