<svg id="Layer_1" data-name="Layer 1" xmlns="http://www.w3.org/2000/svg" xmlns:xlink="http://www.w3.org/1999/xlink" viewBox="0 0 4000 3000"><defs><style>.cls-1{fill:#001e4f;}.cls-2{fill:url(#linear-gradient);}.cls-3{fill:url(#linear-gradient-2);}.cls-4{fill:url(#linear-gradient-3);}.cls-5{fill:url(#linear-gradient-4);}</style><linearGradient id="linear-gradient" x1="2512.08" y1="1864.43" x2="1348.33" y2="1091.7" gradientUnits="userSpaceOnUse"><stop offset="0" stop-color="#4bd7f8"/><stop offset="1" stop-color="#001e4f"/></linearGradient><linearGradient id="linear-gradient-2" x1="2535.5" y1="1829.16" x2="1371.75" y2="1056.43" xlink:href="#linear-gradient"/><linearGradient id="linear-gradient-3" x1="2787.55" y1="1449.57" x2="1623.8" y2="676.84" xlink:href="#linear-gradient"/><linearGradient id="linear-gradient-4" x1="2789.16" y1="1447.14" x2="1625.41" y2="674.41" xlink:href="#linear-gradient"/></defs><title>3. vector file</title><path class="cls-1" d="M1065.24,1874l-85.1,233.93h32.31l30-82.75h62l30.12,82.75h32.16L1081.61,1874Zm-11.7,120.91,19.88-54.83,20,54.83Z"/><polygon class="cls-1" points="1379.96 2040.93 1283.46 1873.96 1255.83 1873.96 1255.83 2107.89 1286.1 2107.89 1286.1 1938.87 1383.91 2107.89 1410.37 2107.89 1410.37 1873.96 1379.96 1873.96 1379.96 2040.93"/><path class="cls-1" d="M1584.59,1874l-85.09,233.93h32.31l30-82.75h62l30.12,82.75h32.16L1601,1874Zm-11.69,120.91,19.88-54.83,20,54.83Z"/><polygon class="cls-1" points="1805.46 1873.96 1775.19 1873.96 1775.19 2107.89 1889.09 2107.89 1889.09 2077.48 1805.46 2077.48 1805.46 1873.96"/><polygon class="cls-1" points="2048.98 1979.81 1987.87 1873.96 1953.07 1873.96 2033.92 2014.02 2033.92 2107.89 2064.19 2107.89 2064.19 2014.02 2145.19 1873.96 2110.24 1873.96 2048.98 1979.81"/><polygon class="cls-1" points="2219.69 1904.22 2274.22 1904.22 2274.22 2107.89 2304.64 2107.89 2304.64 1904.22 2359.17 1904.22 2359.17 1873.96 2219.69 1873.96 2219.69 1904.22"/><rect class="cls-1" x="2451.23" y="1873.96" width="30.27" height="233.93"/><path class="cls-1" d="M2704.11,1902q33.91,0,65.21,27.78l22.66-20.62q-41.52-37.86-87.87-37.86-49.56,0-84.51,35.09t-34.94,84.5q0,49.57,34.94,84.51t84.51,35q46.35,0,87.87-37.87l-22.66-20.33Q2738,2080,2704.11,2080q-36.69,0-62.8-26t-26.09-63q0-36.84,26.09-62.87T2704.11,1902Z"/><path class="cls-1" d="M2998.36,1985.81q-19.14-19.15-46.64-28.08-14.17-6.57-22.22-14.47a24.56,24.56,0,0,1,34.65-34.8q4.09,4.1,9.07,17.55l27.48-10.82q-6.13-19.15-15.2-27.93a54.82,54.82,0,0,0-77.42.15q-16,16.08-16,38.45,0,22.82,15.43,38.23t40.28,23.76a88.64,88.64,0,0,1,29.38,19.16,42.85,42.85,0,1,1-60.53,60.67q-10.82-10.82-13.59-36.7l-29.39,10.68q4.53,30.12,21.64,47.22,21.35,21.49,51.61,21.5t51.54-21.43q21.41-21.4,21.42-51.68T2998.36,1985.81Z"/><polygon class="cls-2" points="1760.84 1373.23 1700.35 1237.5 1639.88 1373.23 1760.84 1373.23"/><path class="cls-3" d="M2065,1614.83V967.34a17.8,17.8,0,0,0-17.79-17.8h-192.1a17.79,17.79,0,0,0-17.79,17.37L1832.81,1151,1716.3,915.54a17.77,17.77,0,0,0-15.72-9.9c-6.62.24-12.86,3.58-16,9.5l-346.8,658.49a17.79,17.79,0,0,0,15.74,26.09h219.5a17.76,17.76,0,0,0,15.61-9.25l38.15-69.77H1773.2l66.54,112.76a17.81,17.81,0,0,0,15.33,8.75,18.49,18.49,0,0,0,4.69-.62,17.82,17.82,0,0,0,13.11-17.17V1464a73.41,73.41,0,1,0-35.6.94v94.32l-38.58-65.38a17.78,17.78,0,0,0-15.33-8.75h-167.1a17.75,17.75,0,0,0-15.61,9.26l-38.15,69.76H1383l316.82-601.57,133,268.91a17.79,17.79,0,0,0,33.74-7.47l5.8-238.87h156.93v631a73.39,73.39,0,1,0,35.59-1.3Zm-253.14-221.58a41.44,41.44,0,1,1,41.44,41.45A41.5,41.5,0,0,1,1811.82,1393.25Zm237.86,334.89a41.45,41.45,0,1,1,41.45-41.46A41.51,41.51,0,0,1,2049.68,1728.14Z"/><path class="cls-4" d="M2638.48,1526.09a73.53,73.53,0,0,0-71.18,55.58l-106.9,0c-51,0-98.09-7.35-139.92-21.85-41.35-14.33-77.06-35.23-106.13-62.11a279.81,279.81,0,0,1-67.7-96.63c-15.94-37.36-24-79.91-24-126.47s8.09-89.1,24-126.47a280.12,280.12,0,0,1,67.71-96.64c29-26.86,64.76-47.76,106.12-62.11,41.83-14.49,116.19-21.84,116.19-21.84l128.57,0A73.47,73.47,0,1,0,2572,932l-111.6,0c-55,0-106,8-151.57,23.81-46,16-85.95,39.38-118.64,69.59a315.56,315.56,0,0,0-76.29,108.81c-17.83,41.81-26.88,89.06-26.88,140.44s9.05,98.63,26.88,140.43a315.36,315.36,0,0,0,76.29,108.81c32.7,30.24,72.61,53.66,118.64,69.6,45.58,15.8,96.58,23.81,151.57,23.81l106.85,0a73.44,73.44,0,1,0,71.23-91.17Zm0-604.44A41.45,41.45,0,1,1,2597,963.1,41.5,41.5,0,0,1,2638.48,921.65Zm0,719.36a41.45,41.45,0,1,1,41.44-41.45A41.5,41.5,0,0,1,2638.48,1641Z"/><path class="cls-5" d="M2362.77,1181.31c12.56-10.26,27.06-19.63,44.28-23.64,51.76-12.07,94-8.25,120-7.61a57.36,57.36,0,1,0,54-76.46,56.42,56.42,0,0,0-55.42,43.94c-19.35,1.23-62.53,1.41-94,3.68-29.48,2.13-58.26,10.84-83.19,26.74a89.39,89.39,0,0,0-8.13,5.77,140.15,140.15,0,0,0-38.73,50.7c-9.24,20.11-13.92,43.72-13.92,70.21,0,25.86,4.67,49.3,13.87,69.66,9.31,20.6,22.35,37.84,38.77,51.22a85.92,85.92,0,0,0,8.12,5.77c24.9,15.9,53.66,24.6,83.12,26.73,30.85,2.24,73.58,5.29,93.51,6.57a57.4,57.4,0,1,0,3.31-35.33c-25.1-1.1-108.76-3.63-121.28-7.68a134.65,134.65,0,0,1-44.27-23.63c-12.13-9.88-21.82-22.76-28.83-38.31-7.12-15.72-10.72-34.23-10.72-55,0-21.32,3.59-39.94,10.67-55.35S2350.45,1191.36,2362.77,1181.31Z"/></svg>