<?xml version="1.0" encoding="UTF-8" standalone="no"?>
<!DOCTYPE svg PUBLIC "-//W3C//DTD SVG 1.1//EN" "http://www.w3.org/Graphics/SVG/1.1/DTD/svg11.dtd">
<svg width="100%" height="100%" viewBox="0 0 2000 1500" version="1.1" xmlns="http://www.w3.org/2000/svg" xmlns:xlink="http://www.w3.org/1999/xlink" xml:space="preserve" xmlns:serif="http://www.serif.com/" style="fill-rule:evenodd;clip-rule:evenodd;stroke-linejoin:round;stroke-miterlimit:2;">
    <g id="Layer-1" serif:id="Layer 1">
        <g transform="matrix(-609.18,-404.496,-404.496,609.18,1268.06,940.766)">
            <path d="M0.715,0.052L0.643,0.005L0.732,-0.052L0.715,0.052Z" style="fill:url(#_Linear1);fill-rule:nonzero;"/>
        </g>
        <g transform="matrix(-609.18,-404.496,-404.496,609.18,1280.75,921.645)">
            <path d="M0.869,-0.207L0.815,0.323C0.815,0.327 0.812,0.331 0.808,0.333C0.804,0.335 0.799,0.335 0.796,0.332L0.665,0.245C0.661,0.243 0.659,0.238 0.659,0.234L0.664,0.177L0.577,0.119L0.492,0.16C0.488,0.162 0.483,0.161 0.48,0.159C0.479,0.158 0.478,0.158 0.477,0.157C0.473,0.152 0.473,0.146 0.476,0.141L0.54,0.046C0.525,0.028 0.522,0.002 0.536,-0.018C0.552,-0.042 0.584,-0.049 0.609,-0.033C0.633,-0.016 0.639,0.016 0.623,0.04C0.609,0.061 0.583,0.069 0.561,0.06L0.523,0.117L0.572,0.093C0.576,0.091 0.581,0.091 0.585,0.094L0.684,0.16C0.688,0.162 0.69,0.167 0.69,0.172L0.685,0.228L0.792,0.299L0.841,-0.185L0.656,-0.077C0.651,-0.074 0.644,-0.075 0.64,-0.079C0.636,-0.084 0.635,-0.09 0.639,-0.095L0.73,-0.24L0.636,-0.302L0.386,0.074C0.401,0.092 0.403,0.118 0.39,0.138C0.374,0.162 0.341,0.168 0.317,0.152C0.293,0.136 0.286,0.104 0.302,0.079C0.316,0.058 0.343,0.051 0.365,0.06L0.622,-0.327C0.626,-0.332 0.634,-0.334 0.64,-0.33L0.754,-0.254C0.76,-0.25 0.762,-0.243 0.758,-0.237L0.688,-0.125L0.85,-0.219C0.854,-0.222 0.86,-0.222 0.864,-0.219C0.867,-0.216 0.87,-0.212 0.869,-0.207ZM0.604,0.028C0.613,0.014 0.61,-0.004 0.596,-0.013C0.582,-0.022 0.564,-0.019 0.555,-0.005C0.546,0.008 0.549,0.027 0.563,0.036C0.577,0.045 0.595,0.041 0.604,0.028ZM0.371,0.125C0.38,0.111 0.376,0.093 0.363,0.084C0.349,0.075 0.33,0.078 0.321,0.092C0.312,0.106 0.316,0.124 0.33,0.133C0.343,0.142 0.362,0.139 0.371,0.125Z" style="fill:url(#_Linear2);fill-rule:nonzero;"/>
        </g>
        <g transform="matrix(-609.18,-404.496,-404.496,609.18,1414.27,720.557)">
            <path d="M0.333,-0.218C0.356,-0.204 0.4,-0.174 0.4,-0.174C0.433,-0.152 0.46,-0.127 0.481,-0.1C0.502,-0.072 0.517,-0.042 0.524,-0.011C0.532,0.02 0.533,0.052 0.527,0.084C0.521,0.116 0.507,0.147 0.487,0.178C0.467,0.209 0.443,0.233 0.415,0.251C0.388,0.269 0.358,0.281 0.327,0.286C0.295,0.291 0.262,0.289 0.229,0.28C0.195,0.272 0.161,0.256 0.129,0.235C0.128,0.234 0.088,0.207 0.065,0.192C0.048,0.208 0.021,0.211 0,0.197C-0.024,0.181 -0.03,0.149 -0.014,0.124C0.002,0.1 0.034,0.094 0.059,0.11C0.079,0.123 0.087,0.149 0.079,0.171C0.102,0.186 0.142,0.213 0.143,0.213C0.173,0.234 0.204,0.248 0.235,0.256C0.265,0.264 0.295,0.265 0.323,0.261C0.351,0.256 0.377,0.246 0.401,0.23C0.426,0.214 0.447,0.192 0.466,0.164C0.484,0.136 0.496,0.108 0.502,0.079C0.507,0.05 0.506,0.022 0.499,-0.005C0.493,-0.033 0.48,-0.06 0.461,-0.084C0.442,-0.11 0.4,-0.144 0.4,-0.144C0.4,-0.144 0.35,-0.177 0.323,-0.194C0.307,-0.172 0.276,-0.167 0.252,-0.182C0.228,-0.198 0.222,-0.231 0.238,-0.255C0.254,-0.279 0.286,-0.286 0.311,-0.27C0.328,-0.258 0.336,-0.238 0.333,-0.218ZM0.306,-0.21C0.315,-0.223 0.312,-0.242 0.298,-0.251C0.284,-0.26 0.266,-0.256 0.257,-0.242C0.248,-0.229 0.251,-0.21 0.265,-0.201C0.279,-0.192 0.297,-0.196 0.306,-0.21ZM0.054,0.17C0.063,0.156 0.06,0.138 0.046,0.129C0.032,0.12 0.014,0.123 0.005,0.137C-0.004,0.151 -0.001,0.169 0.013,0.178C0.027,0.187 0.045,0.184 0.054,0.17Z" style="fill:url(#_Linear3);fill-rule:nonzero;"/>
        </g>
        <g transform="matrix(-609.18,-404.496,-404.496,609.18,1415.39,718.881)">
            <path d="M0.288,-0.087C0.299,-0.078 0.324,-0.061 0.342,-0.047C0.359,-0.034 0.373,-0.018 0.381,0.002C0.382,0.004 0.383,0.006 0.384,0.008C0.388,0.023 0.389,0.038 0.387,0.054C0.384,0.07 0.378,0.086 0.367,0.101C0.357,0.117 0.345,0.129 0.332,0.137C0.318,0.146 0.303,0.151 0.288,0.153L0.281,0.153C0.26,0.152 0.239,0.146 0.221,0.136C0.202,0.125 0.175,0.11 0.162,0.103C0.149,0.116 0.128,0.118 0.111,0.107C0.092,0.095 0.087,0.069 0.1,0.05C0.112,0.031 0.138,0.026 0.157,0.039C0.171,0.048 0.177,0.065 0.175,0.08C0.19,0.09 0.241,0.121 0.25,0.124C0.262,0.127 0.274,0.128 0.286,0.127C0.297,0.126 0.308,0.122 0.318,0.116C0.328,0.109 0.338,0.1 0.346,0.087C0.355,0.075 0.36,0.062 0.362,0.05C0.364,0.038 0.363,0.027 0.36,0.016C0.356,0.005 0.351,-0.006 0.343,-0.016C0.316,-0.043 0.29,-0.058 0.274,-0.068C0.26,-0.057 0.241,-0.056 0.227,-0.066C0.208,-0.079 0.202,-0.104 0.215,-0.123C0.228,-0.142 0.253,-0.147 0.272,-0.135C0.288,-0.124 0.295,-0.105 0.288,-0.087Z" style="fill:url(#_Linear4);fill-rule:nonzero;"/>
        </g>
    </g>
    <defs>
        <linearGradient id="_Linear1" x1="0" y1="0" x2="1" y2="0" gradientUnits="userSpaceOnUse" gradientTransform="matrix(1,0,0,1,0,-2.14169e-07)"><stop offset="0" style="stop-color:rgb(75,215,248);stop-opacity:1"/><stop offset="1" style="stop-color:rgb(0,30,79);stop-opacity:1"/></linearGradient>
        <linearGradient id="_Linear2" x1="0" y1="0" x2="1" y2="0" gradientUnits="userSpaceOnUse" gradientTransform="matrix(1,0,0,1,0,0.00108252)"><stop offset="0" style="stop-color:rgb(75,215,248);stop-opacity:1"/><stop offset="1" style="stop-color:rgb(0,30,79);stop-opacity:1"/></linearGradient>
        <linearGradient id="_Linear3" x1="0" y1="0" x2="1" y2="0" gradientUnits="userSpaceOnUse" gradientTransform="matrix(1,0,0,1,0,0.00499681)"><stop offset="0" style="stop-color:rgb(75,215,248);stop-opacity:1"/><stop offset="1" style="stop-color:rgb(0,30,79);stop-opacity:1"/></linearGradient>
        <linearGradient id="_Linear4" x1="0" y1="0" x2="1" y2="0" gradientUnits="userSpaceOnUse" gradientTransform="matrix(1,0,0,1,0,0.0056633)"><stop offset="0" style="stop-color:rgb(75,215,248);stop-opacity:1"/><stop offset="1" style="stop-color:rgb(0,30,79);stop-opacity:1"/></linearGradient>
    </defs>
</svg>
