<?xml version="1.0" encoding="utf-8"?>
<!-- Generator: Adobe Illustrator 23.0.0, SVG Export Plug-In . SVG Version: 6.00 Build 0)  -->
<svg version="1.1" id="Layer_1" xmlns="http://www.w3.org/2000/svg" xmlns:xlink="http://www.w3.org/1999/xlink" x="0px" y="0px"
	 viewBox="0 0 2000 1500" style="enable-background:new 0 0 2000 1500;" xml:space="preserve">
<style type="text/css">
	.st0{fill:#001E4F;}
	.st1{fill:url(#SVGID_1_);}
	.st2{fill:url(#SVGID_2_);}
	.st3{fill:url(#SVGID_3_);}
	.st4{fill:url(#SVGID_4_);}
</style>
<g>
	<g>
		<path class="st0" d="M510.69,945.75l-44.54,122.46h16.91l15.69-43.32h32.45l15.77,43.32h16.84l-44.54-122.46H510.69z
			 M504.56,1009.05l10.41-28.7l10.49,28.7H504.56z"/>
		<polygon class="st0" points="675.43,1033.15 624.92,945.75 610.46,945.75 610.46,1068.21 626.3,1068.21 626.3,979.73 
			677.5,1068.21 691.35,1068.21 691.35,945.75 675.43,945.75 		"/>
		<path class="st0" d="M782.55,945.75l-44.54,122.46h16.91l15.69-43.32h32.45l15.77,43.32h16.84l-44.54-122.46H782.55z
			 M776.43,1009.05l10.41-28.7l10.49,28.7H776.43z"/>
		<polygon class="st0" points="898.16,945.75 882.32,945.75 882.32,1068.21 941.94,1068.21 941.94,1052.29 898.16,1052.29 		"/>
		<polygon class="st0" points="1025.64,1001.16 993.65,945.75 975.43,945.75 1017.76,1019.07 1017.76,1068.21 1033.6,1068.21 
			1033.6,1019.07 1076,945.75 1057.71,945.75 		"/>
		<polygon class="st0" points="1115,961.6 1143.55,961.6 1143.55,1068.21 1159.47,1068.21 1159.47,961.6 1188.01,961.6 
			1188.01,945.75 1115,945.75 		"/>
		<rect x="1236.2" y="945.75" class="st0" width="15.84" height="122.45"/>
		<path class="st0" d="M1368.58,960.45c11.84,0,23.22,4.85,34.13,14.54l11.86-10.79c-14.49-13.21-29.82-19.82-46-19.82
			c-17.3,0-32.04,6.12-44.24,18.37c-12.19,12.25-18.29,26.99-18.29,44.24c0,17.3,6.1,32.04,18.29,44.24s26.94,18.29,44.24,18.29
			c16.17,0,31.51-6.61,46-19.82l-11.86-10.64c-10.92,9.69-22.3,14.54-34.13,14.54c-12.81,0-23.76-4.54-32.87-13.62
			c-9.1-9.08-13.66-20.08-13.66-32.99c0-12.86,4.56-23.83,13.66-32.91C1344.81,964.99,1355.77,960.45,1368.58,960.45z"/>
		<path class="st0" d="M1522.61,1004.3c-6.68-6.68-14.82-11.58-24.41-14.69c-4.95-2.3-8.83-4.82-11.63-7.58
			c-2.5-2.5-3.75-5.54-3.75-9.11s1.25-6.59,3.75-9.07c2.5-2.47,5.54-3.71,9.11-3.71c3.52,0,6.53,1.22,9.03,3.67
			c1.43,1.43,3.01,4.49,4.75,9.18l14.39-5.66c-2.14-6.68-4.8-11.56-7.96-14.62c-5.61-5.56-12.35-8.34-20.21-8.34
			c-7.96,0-14.73,2.81-20.32,8.42c-5.59,5.61-8.38,12.32-8.38,20.13c0,7.96,2.69,14.63,8.08,20.01c5.38,5.39,12.41,9.53,21.08,12.44
			c6.07,2.5,11.2,5.84,15.38,10.03c4.39,4.39,6.58,9.67,6.58,15.84c0,6.22-2.19,11.53-6.58,15.92c-4.39,4.39-9.67,6.58-15.84,6.58
			s-11.45-2.19-15.84-6.58c-3.78-3.78-6.15-10.18-7.12-19.21l-15.38,5.59c1.58,10.51,5.36,18.75,11.33,24.72
			c7.45,7.5,16.45,11.25,27.02,11.25c10.51,0,19.5-3.74,26.98-11.21c7.47-7.47,11.21-16.49,11.21-27.05
			C1533.86,1020.68,1530.11,1011.7,1522.61,1004.3z"/>
	</g>
	<g>
		<linearGradient id="SVGID_1_" gradientUnits="userSpaceOnUse" x1="1268.0558" y1="940.7661" x2="658.8753" y2="536.2703">
			<stop  offset="0" style="stop-color:#4BD7F8"/>
			<stop  offset="1" style="stop-color:#001E4F"/>
		</linearGradient>
		<polygon class="st1" points="874.81,683.64 843.15,612.59 811.49,683.64 		"/>
		<linearGradient id="SVGID_2_" gradientUnits="userSpaceOnUse" x1="1280.314" y1="922.3049" x2="671.1335" y2="517.8091">
			<stop  offset="0" style="stop-color:#4BD7F8"/>
			<stop  offset="1" style="stop-color:#001E4F"/>
		</linearGradient>
		<path class="st2" d="M1034.01,810.11V471.17c0-5.14-4.17-9.32-9.32-9.32H924.13c-5.06,0-9.19,4.03-9.31,9.09l-2.34,96.38
			L851.5,444.06c-1.55-3.14-4.73-5.14-8.23-5.19c-3.47,0.13-6.73,1.87-8.36,4.97l-181.54,344.7c-1.52,2.89-1.42,6.36,0.27,9.16
			c1.69,2.79,4.71,4.5,7.98,4.5h114.9c3.41,0,6.54-1.86,8.17-4.85l19.97-36.52h76.63l34.83,59.03c1.71,2.89,4.79,4.58,8.02,4.58
			c0.81,0,1.64-0.11,2.45-0.33c4.05-1.11,6.86-4.79,6.86-8.99v-83.98c16.23-4.51,28.2-19.38,28.2-37.03
			c0-21.21-17.26-38.46-38.47-38.46c-21.21,0-38.46,17.25-38.46,38.46c0,18.33,12.9,33.68,30.1,37.52v49.37l-20.2-34.23
			c-1.68-2.84-4.73-4.58-8.02-4.58h-87.47c-3.41,0-6.54,1.86-8.17,4.85l-19.97,36.52h-93.94l165.84-314.9l69.64,140.76
			c1.9,3.85,6.16,5.86,10.36,4.97c4.18-0.93,7.2-4.59,7.3-8.87l3.04-125.04h82.15v330.3c-16.05,4.63-27.83,19.41-27.83,36.93
			c0,21.21,17.25,38.47,38.46,38.47c21.21,0,38.46-17.26,38.46-38.47C1064.46,829.26,1051.39,813.8,1034.01,810.11z M901.49,694.12
			c0-11.96,9.73-21.7,21.69-21.7c11.96,0,21.7,9.73,21.7,21.7c0,11.96-9.73,21.7-21.7,21.7
			C911.23,715.82,901.49,706.08,901.49,694.12z M1026.01,869.42c-11.96,0-21.7-9.73-21.7-21.7c0-11.96,9.73-21.7,21.7-21.7
			c11.96,0,21.7,9.73,21.7,21.7C1047.7,859.69,1037.97,869.42,1026.01,869.42z"/>
		<linearGradient id="SVGID_3_" gradientUnits="userSpaceOnUse" x1="1412.2535" y1="723.6008" x2="803.073" y2="319.105">
			<stop  offset="0" style="stop-color:#4BD7F8"/>
			<stop  offset="1" style="stop-color:#001E4F"/>
		</linearGradient>
		<path class="st3" d="M1334.22,763.66c-17.97,0-33.06,12.41-37.26,29.09c-20.08,0-55.7,0.01-55.96,0.01
			c-26.7,0-51.35-3.85-73.24-11.43c-21.65-7.5-40.34-18.44-55.56-32.52c-15.19-14.03-27.11-31.04-35.44-50.58
			c-8.35-19.55-12.58-41.83-12.58-66.2c0-24.37,4.23-46.64,12.58-66.2c8.33-19.53,20.25-36.55,35.44-50.59
			c15.21-14.06,33.9-25,55.55-32.51c21.9-7.59,60.82-11.43,60.82-11.43c0.26,0,43.89,0.01,67.3,0.01
			c1.23,20.11,17.93,36.1,38.34,36.1c21.21,0,38.46-17.25,38.46-38.46s-17.25-38.46-38.46-38.46c-15.39,0-28.66,9.1-34.8,22.19
			c-19.47,0-58.15-0.01-58.42-0.01c-28.79,0-55.48,4.19-79.34,12.46c-24.1,8.36-44.99,20.62-62.1,36.43
			c-17.13,15.84-30.57,35-39.93,56.96c-9.33,21.89-14.07,46.62-14.07,73.52c0,26.9,4.74,51.63,14.07,73.51
			c9.37,21.97,22.81,41.14,39.93,56.96c17.12,15.83,38.01,28.09,62.1,36.43c23.86,8.27,50.56,12.46,79.34,12.46
			c0.25,0,35.84-0.01,55.93-0.01c4.16,16.74,19.27,29.19,37.28,29.19c21.21,0,38.46-17.25,38.46-38.46
			C1372.68,780.91,1355.43,763.66,1334.22,763.66z M1334.22,447.26c11.96,0,21.7,9.73,21.7,21.7c0,11.96-9.73,21.7-21.7,21.7
			c-11.96,0-21.7-9.73-21.7-21.7C1312.52,456.99,1322.26,447.26,1334.22,447.26z M1334.22,823.81c-11.96,0-21.7-9.73-21.7-21.7
			s9.73-21.7,21.7-21.7c11.96,0,21.7,9.73,21.7,21.7S1346.18,823.81,1334.22,823.81z"/>
		<linearGradient id="SVGID_4_" gradientUnits="userSpaceOnUse" x1="1413.0968" y1="722.3308" x2="803.9163" y2="317.835">
			<stop  offset="0" style="stop-color:#4BD7F8"/>
			<stop  offset="1" style="stop-color:#001E4F"/>
		</linearGradient>
		<path class="st4" d="M1189.9,583.18c6.57-5.37,14.16-10.27,23.18-12.37c27.09-6.32,49.23-4.32,62.81-3.98
			c4.12,11.7,15.15,20.13,28.26,20.13c16.61,0,30.08-13.47,30.08-30.08s-13.47-30.08-30.08-30.08c-13.59,0-25.68,8.95-29.01,23
			c-10.13,0.64-32.73,0.74-49.21,1.93c-15.44,1.11-30.5,5.67-43.55,14c-1.61,1.03-3.06,2.04-4.26,3.02
			c-8.59,7.01-15.41,15.94-20.28,26.54c-4.83,10.52-7.28,22.88-7.28,36.75c0,13.54,2.44,25.81,7.26,36.46
			c4.87,10.78,11.7,19.81,20.29,26.81c1.19,0.98,2.64,2,4.25,3.02c13.03,8.32,28.08,12.88,43.51,13.99
			c16.15,1.17,38.52,2.77,48.95,3.44c2.99,13.45,14.96,23.53,29.32,23.53c16.61,0,30.08-13.47,30.08-30.08s-13.47-30.08-30.08-30.08
			c-12.36,0-22.96,7.47-27.58,18.13c-13.14-0.57-56.93-1.9-63.49-4.02c-8.81-2.84-16.61-7-23.17-12.37
			c-6.35-5.17-11.43-11.91-15.1-20.05c-3.72-8.23-5.61-17.92-5.61-28.79c0-11.16,1.88-20.91,5.59-28.97
			C1178.5,594.94,1183.45,588.44,1189.9,583.18z"/>
	</g>
</g>
</svg>
